<?xml version="1.0" encoding="UTF-8" standalone="no"?>
<svg
   xmlns:dc="http://purl.org/dc/elements/1.1/"
   xmlns:cc="http://creativecommons.org/ns#"
   xmlns:rdf="http://www.w3.org/1999/02/22-rdf-syntax-ns#"
   xmlns:svg="http://www.w3.org/2000/svg"
   xmlns="http://www.w3.org/2000/svg"
   xmlns:sodipodi="http://sodipodi.sourceforge.net/DTD/sodipodi-0.dtd"
   xmlns:inkscape="http://www.inkscape.org/namespaces/inkscape"
   width="784.94659"
   height="781.45355"
   id="svg2"
   version="1.1"
   inkscape:version="0.91 r13725"
   sodipodi:docname="BlazingSun.svg">
  <metadata
     id="metadata13">
    <rdf:RDF>
      <cc:Work
         rdf:about="">
        <dc:format>image/svg+xml</dc:format>
        <dc:type
           rdf:resource="http://purl.org/dc/dcmitype/StillImage" />
        <dc:title></dc:title>
      </cc:Work>
    </rdf:RDF>
  </metadata>
  <defs
     id="defs11" />
  <sodipodi:namedview
     pagecolor="#ffffff"
     bordercolor="#666666"
     borderopacity="1"
     objecttolerance="10"
     gridtolerance="10"
     guidetolerance="10"
     inkscape:pageopacity="0"
     inkscape:pageshadow="2"
     inkscape:window-width="1600"
     inkscape:window-height="837"
     id="namedview9"
     showgrid="false"
     fit-margin-top="0"
     fit-margin-left="0"
     fit-margin-right="0"
     fit-margin-bottom="0"
     inkscape:zoom="0.85063764"
     inkscape:cx="588.96103"
     inkscape:cy="386.38622"
     inkscape:window-x="-8"
     inkscape:window-y="-8"
     inkscape:window-maximized="1"
     inkscape:current-layer="svg2" />
  <g
     id="g5825"
     transform="translate(-9.0007485,2.7872358)">
    <path
       inkscape:transform-center-y="-270.51565"
       inkscape:transform-center-x="-45.986785"
       sodipodi:nodetypes="cssssssscsssssssscc"
       inkscape:connector-curvature="0"
       id="path5793"
       d="m 400.09087,195.35229 c 0,0 3.08025,-3.95078 4.69315,-5.86644 5.88856,-6.99394 13.14247,-12.90667 18.18595,-20.53252 7.2859,-11.01643 13.38809,-23.08452 17.01266,-35.78525 3.83421,-13.43535 2.57588,-27.84129 4.69315,-41.651692 2.17355,-14.177491 3.53161,-28.680674 8.213,-42.238333 3.08277,-8.927934 8.04718,-17.126176 12.90616,-25.22567 2.81853,-4.698242 5.87101,-9.290384 9.3863,-13.492801 3.54872,-4.2423765 11.73287,-11.7328699 11.73287,-11.7328699 0,0 -5.60779,12.7237299 -7.62637,19.3592359 -1.86426,6.128208 -3.29343,12.418907 -4.1065,18.772592 -1.26687,9.899874 -1.93858,19.967596 -1.17329,29.918818 0.62635,8.14461 2.63665,16.14683 4.69315,24.052384 2.84898,10.951966 8.06455,21.227416 10.55958,32.265396 2.69523,11.92365 5.19892,24.15788 4.69315,36.37189 -0.34751,8.39227 -3.3305,16.46889 -5.27979,24.63903 -1.78321,7.47403 -2.82656,15.23554 -5.86644,22.29245 -3.3704,7.82419 -13.4928,21.70581 -13.4928,21.70581 z"
       style="fill:#ffdd37;fill-opacity:1;fill-rule:evenodd;stroke:none;stroke-width:1px;stroke-linecap:butt;stroke-linejoin:miter;stroke-opacity:1" />
    <path
       style="fill:#ffdd37;fill-opacity:1;fill-rule:evenodd;stroke:none;stroke-width:1px;stroke-linecap:butt;stroke-linejoin:miter;stroke-opacity:1"
       d="m 323.43276,212.062 c 0,0 1.20702,-4.86206 1.90131,-7.26813 2.53478,-8.78438 6.75663,-17.13636 8.26237,-26.15428 2.17521,-13.02746 2.8413,-26.53419 0.98666,-39.61113 -1.96192,-13.83332 -8.97089,-26.48199 -12.65386,-39.959589 -3.78087,-13.835845 -8.4392,-27.637534 -9.67693,-41.927165 -0.81507,-9.409949 0.38562,-18.918623 1.53016,-28.294204 0.66391,-5.438457 1.58469,-10.875143 3.08679,-16.14404 1.51639,-5.3189979 5.94633,-15.4906978 5.94633,-15.4906978 0,0 0.0522,13.9045998 0.90707,20.7874658 0.78948,6.35666 2.04253,12.684795 3.88403,18.819881 2.8693,9.559267 6.35057,19.029798 11.09722,27.80942 3.88491,7.185712 8.97621,13.678441 14.0704,20.06407 7.05723,8.846334 16.0013,16.112059 22.77017,25.180939 7.312,9.79655 14.57535,19.95473 19.08119,31.3185 3.09597,7.80806 3.65593,16.39971 5.19827,24.65636 1.41091,7.55316 3.61466,15.06802 3.70789,22.75126 0.10337,8.51862 -3.49774,25.31726 -3.49774,25.31726 z"
       id="path5795"
       inkscape:connector-curvature="0"
       sodipodi:nodetypes="cssssssscsssssssscc"
       inkscape:transform-center-x="43.309022"
       inkscape:transform-center-y="-278.46582" />
    <path
       inkscape:transform-center-y="-223.53617"
       inkscape:transform-center-x="149.47838"
       sodipodi:nodetypes="cssssssscsssssssscc"
       inkscape:connector-curvature="0"
       id="path5797"
       d="m 260.19855,258.50675 c 0,0 -0.87491,-4.93266 -1.21928,-7.4131 -1.2573,-9.05592 -0.7975,-18.40302 -3.08986,-27.25374 -3.31159,-12.78591 -8.19677,-25.39585 -15.20994,-36.58787 -7.41882,-11.83939 -18.96651,-20.54372 -27.8129,-31.35812 -9.08154,-11.10185 -18.95079,-21.81561 -25.89363,-34.36641 -4.57198,-8.26489 -7.34262,-17.43986 -10.11042,-26.47041 -1.60551,-5.238314 -2.97563,-10.579489 -3.74645,-16.003825 -0.77814,-5.475918 -0.86839,-16.570047 -0.86839,-16.570047 0,0 5.7032,12.681253 9.28367,18.621357 3.30671,5.485987 7.02532,10.757365 11.20298,15.613039 6.50934,7.565776 13.54165,14.801576 21.44892,20.891526 6.47173,4.98434 13.7637,8.84492 21.01474,12.60649 10.04523,5.21109 21.17128,8.21078 31.0436,13.74247 10.66446,5.97554 21.43156,12.30122 30.16991,20.84985 6.00414,5.87378 10.01023,13.49488 14.77751,20.41038 4.36107,6.32629 9.43087,12.29511 12.64109,19.27618 3.55927,7.7401 7.10212,24.55113 7.10212,24.55113 z"
       style="fill:#ffdd37;fill-opacity:1;fill-rule:evenodd;stroke:none;stroke-width:1px;stroke-linecap:butt;stroke-linejoin:miter;stroke-opacity:1" />
    <path
       style="fill:#ffdd37;fill-opacity:1;fill-rule:evenodd;stroke:none;stroke-width:1px;stroke-linecap:butt;stroke-linejoin:miter;stroke-opacity:1"
       d="m 221.32201,326.65581 c 0,0 -2.80557,-4.15035 -4.12905,-6.27628 -4.83198,-7.76161 -8.21374,-16.48762 -13.90782,-23.64077 -8.22579,-10.33357 -17.81755,-19.86634 -28.7766,-27.23824 -11.59295,-7.79832 -25.68266,-11.05325 -38.16285,-17.33455 -12.81193,-6.44825 -26.18561,-12.22157 -37.633084,-20.86339 -7.538345,-5.69076 -13.801247,-12.94559 -20.002814,-20.06964 -3.597321,-4.13242 -7.021439,-8.45455 -9.931894,-13.0964 -2.938123,-4.68601 -7.532959,-14.78429 -7.532959,-14.78429 0,0 10.368062,9.2652 16.055042,13.23545 5.252182,3.66674 10.793364,6.96988 16.584827,9.70656 9.023852,4.26409 18.391252,8.01402 28.091912,10.36129 7.93953,1.92113 16.17132,2.48204 24.32544,2.96914 11.29632,0.6748 22.68055,-1.11021 33.94931,-0.0722 12.17294,1.1213 24.58206,2.52072 36.04198,6.77608 7.87414,2.92386 14.63366,8.25666 21.80158,12.63525 6.55717,4.00555 13.6164,7.39627 19.38854,12.46808 6.39973,5.62324 16.47395,19.53988 16.47395,19.53988 z"
       id="path5799"
       inkscape:connector-curvature="0"
       sodipodi:nodetypes="cssssssscsssssssscc"
       inkscape:transform-center-x="233.4671"
       inkscape:transform-center-y="-129.02713" />
    <path
       inkscape:transform-center-y="-24.151688"
       inkscape:transform-center-x="277.08724"
       sodipodi:nodetypes="cssssssscsssssssscc"
       inkscape:connector-curvature="0"
       id="path5801"
       d="m 213.52524,404.72558 c 0,0 -4.25112,-2.6504 -6.32487,-4.05423 -7.57116,-5.12524 -14.20974,-11.72136 -22.32099,-15.94009 -11.71768,-6.09446 -24.35751,-10.90176 -37.36753,-13.17888 -13.76254,-2.40884 -27.95803,0.34843 -41.91409,-0.31367 -14.32702,-0.67969 -28.892705,-0.51431 -42.865438,-3.7529 -9.201262,-2.13265 -17.873513,-6.21291 -26.436538,-10.19865 -4.967123,-2.31199 -9.853179,-4.86774 -14.400023,-7.92449 -4.59008,-3.08584 -12.8950125,-10.44219 -12.8950125,-10.44219 0,0 13.2401925,4.24711 20.0503535,5.56101 6.289504,1.21348 12.695134,1.97725 19.099007,2.12173 9.97806,0.22511 20.06084,-0.15923 29.877555,-1.9605 8.034515,-1.47426 15.782772,-4.31002 23.430056,-7.18161 10.59416,-3.97816 20.26815,-10.23924 30.98487,-13.87438 11.57661,-3.92683 23.4821,-7.69564 35.68207,-8.46934 8.38262,-0.53162 16.7268,1.59079 25.05595,2.67537 7.61948,0.99221 15.44753,1.21854 22.78354,3.50413 8.13362,2.53408 22.99728,11.15001 22.99728,11.15001 z"
       style="fill:#ffdd37;fill-opacity:1;fill-rule:evenodd;stroke:none;stroke-width:1px;stroke-linecap:butt;stroke-linejoin:miter;stroke-opacity:1" />
    <path
       style="fill:#ffdd37;fill-opacity:1;fill-rule:evenodd;stroke:none;stroke-width:1px;stroke-linecap:butt;stroke-linejoin:miter;stroke-opacity:1"
       d="m 238.15637,479.2171 c 0,0 -4.96161,-0.69217 -7.42706,-1.13117 -9.00122,-1.60267 -17.74875,-4.92837 -26.87466,-5.48323 -13.18347,-0.80156 -26.68583,-0.0522 -39.49727,3.15924 -13.55247,3.39714 -25.39921,11.68986 -38.41801,16.76144 -13.36483,5.2064 -26.603983,11.28188 -40.685963,14.0065 -9.273198,1.79422 -18.855285,1.59404 -28.299144,1.43578 -5.478064,-0.0918 -10.981215,-0.43925 -16.378256,-1.38236 -5.448371,-0.95211 -16.027402,-4.29455 -16.027402,-4.29455 0,0 13.822973,-1.50534 20.578776,-3.07497 6.239315,-1.44961 12.401802,-3.35727 18.310797,-5.82997 9.206972,-3.8528 18.261724,-8.30494 26.497097,-13.9433 6.740259,-4.61474 12.665235,-10.35684 18.483395,-16.09059 8.06019,-7.94327 14.3512,-17.59781 22.66287,-25.27756 8.97857,-8.29597 18.32187,-16.58135 29.1524,-22.25034 7.44168,-3.89517 15.92773,-5.35014 23.97792,-7.7471 7.36431,-2.19269 14.60765,-5.16988 22.23906,-6.06571 8.46114,-0.99325 25.54418,0.8322 25.54418,0.8322 z"
       id="path5803"
       inkscape:connector-curvature="0"
       sodipodi:nodetypes="cssssssscsssssssscc"
       inkscape:transform-center-x="269.71584"
       inkscape:transform-center-y="70.857698" />
    <path
       inkscape:transform-center-y="173.56517"
       inkscape:transform-center-x="202.99003"
       sodipodi:nodetypes="cssssssscsssssssscc"
       inkscape:connector-curvature="0"
       id="path5805"
       d="m 290.95646,537.25011 c 0,0 -4.81419,1.38574 -7.24505,1.98748 -8.87489,2.19701 -18.21884,2.71678 -26.78145,5.92173 -12.36972,4.62994 -24.39995,10.80642 -34.79757,18.95109 -10.99906,8.61573 -18.44864,21.01001 -28.27911,30.93835 -10.09175,10.19225 -19.71519,21.12733 -31.47152,29.34405 -7.74171,5.41085 -16.57681,9.12536 -25.26857,12.82195 -5.0418,2.14426 -10.2105,4.06519 -15.52454,5.39879 -5.36459,1.34625 -16.38851,2.59566 -16.38851,2.59566 0,0 12.01564,-6.9975 17.54894,-11.17926 5.11029,-3.86205 9.96409,-8.11129 14.35649,-12.77362 6.84391,-7.26452 13.30499,-15.01465 18.53505,-23.51518 4.28055,-6.95728 7.35776,-14.61286 10.34079,-22.21736 4.13253,-10.53491 5.9528,-21.91356 10.42225,-32.31002 4.82806,-11.23066 9.99362,-22.59999 17.58201,-32.18404 5.21401,-6.58522 12.37461,-11.36599 18.75389,-16.83003 5.83579,-4.99846 11.24198,-10.66439 17.84925,-14.58674 7.32565,-4.34884 23.67426,-9.6295 23.67426,-9.6295 z"
       style="fill:#ffdd37;fill-opacity:1;fill-rule:evenodd;stroke:none;stroke-width:1px;stroke-linecap:butt;stroke-linejoin:miter;stroke-opacity:1" />
    <path
       style="fill:#ffdd37;fill-opacity:1;fill-rule:evenodd;stroke:none;stroke-width:1px;stroke-linecap:butt;stroke-linejoin:miter;stroke-opacity:1"
       d="m 362.79589,568.79017 c 0,0 -3.83435,3.22404 -5.8103,4.76248 -7.21401,5.61681 -15.53873,9.89217 -22.05749,16.30277 -9.41713,9.26087 -17.89509,19.79651 -24.08106,31.46612 -6.54381,12.34459 -8.30813,26.69734 -13.25049,39.76574 -5.07371,13.41577 -9.41746,27.31967 -16.81536,39.60775 -4.87162,8.09189 -11.43205,15.07883 -17.86883,21.99109 -3.73377,4.00956 -7.6743,7.86672 -11.98649,11.24644 -4.35323,3.41183 -13.9159,9.03706 -13.9159,9.03706 0,0 8.13069,-11.27974 11.48474,-17.35056 3.09764,-5.6067 5.80349,-11.4628 7.91981,-17.5086 3.29747,-9.42013 6.0477,-19.12819 7.36812,-29.02107 1.0807,-8.09684 0.77806,-16.34218 0.41017,-24.50254 -0.50968,-11.30497 -3.47489,-22.44026 -3.62047,-33.75579 -0.15727,-12.22346 -0.0626,-24.71089 2.97154,-36.55283 2.08478,-8.13662 6.6818,-15.41655 10.28714,-23.00289 3.2982,-6.93995 5.93246,-14.31493 10.37314,-20.58559 4.92348,-6.95248 17.71084,-18.42618 17.71084,-18.42618 z"
       id="path5807"
       inkscape:connector-curvature="0"
       sodipodi:nodetypes="cssssssscsssssssscc"
       inkscape:transform-center-x="101.1654"
       inkscape:transform-center-y="248.58543" />
    <path
       inkscape:transform-center-y="280.62301"
       inkscape:transform-center-x="2.331799"
       sodipodi:nodetypes="cssssssscsssssssscc"
       inkscape:connector-curvature="0"
       id="path5809"
       d="m 441.25297,568.38372 c 0,0 -2.19151,4.50488 -3.37089,6.714 -4.30577,8.06542 -10.17183,15.35712 -13.51959,23.86491 -4.83624,12.29052 -8.29601,25.3636 -9.20072,38.54038 -0.95707,13.93896 3.26893,27.76846 4.06926,41.71727 0.82162,14.31958 2.50863,28.78819 0.74833,43.02291 -1.15918,9.37377 -4.31059,18.42503 -7.37941,27.35777 -1.78013,5.18157 -3.81114,10.30802 -6.37586,15.14948 -2.58916,4.88748 -9.03711,13.91587 -9.03711,13.91587 0,0 2.83987,-13.61161 3.43473,-20.52179 0.54938,-6.3819 0.63941,-12.83228 0.11371,-19.21618 -0.81912,-9.94692 -2.25528,-19.93429 -5.07282,-29.50895 -2.30601,-7.83639 -5.93617,-15.24579 -9.59137,-22.55102 -5.06376,-10.1203 -12.30174,-19.08683 -17.03718,-29.36487 -5.1154,-11.10272 -10.10801,-22.54906 -12.15274,-34.60131 -1.40492,-8.28112 -0.16635,-16.80145 0.0417,-25.19834 0.19033,-7.68146 -0.40283,-15.49029 1.10343,-23.02501 1.66999,-8.35396 8.68505,-24.0368 8.68505,-24.0368 z"
       style="fill:#ffdd37;fill-opacity:1;fill-rule:evenodd;stroke:none;stroke-width:1px;stroke-linecap:butt;stroke-linejoin:miter;stroke-opacity:1" />
    <path
       style="fill:#ffdd37;fill-opacity:1;fill-rule:evenodd;stroke:none;stroke-width:1px;stroke-linecap:butt;stroke-linejoin:miter;stroke-opacity:1"
       d="m 512.76176,536.10104 c 0,0 -0.16974,5.00678 -0.34863,7.50461 -0.65301,9.11944 -3.04612,18.16668 -2.64402,27.30059 0.58088,13.19502 2.73752,26.54509 7.27051,38.95066 4.79515,13.12315 14.28076,24.03816 20.68539,36.4555 6.57489,12.74741 14.00096,25.27897 18.18263,38.99902 2.75369,9.03484 3.55621,18.58537 4.38598,27.99404 0.48131,5.45764 0.711,10.96697 0.33721,16.43303 -0.3774,5.51804 -2.59572,16.38851 -2.59572,16.38851 0,0 -2.94199,-13.58991 -5.20918,-20.14462 -2.09387,-6.05361 -4.63523,-11.98294 -7.71204,-17.60111 -4.79408,-8.75379 -10.16831,-17.29357 -16.63663,-24.89446 -5.29399,-6.22096 -11.62398,-11.51327 -17.93447,-16.70022 -8.74228,-7.18574 -19.00152,-12.43312 -27.50801,-19.8965 -9.18903,-8.06222 -18.40566,-16.48829 -25.1757,-26.6669 -4.6517,-6.99375 -6.98574,-15.28123 -10.211,-23.03679 -2.95045,-7.09478 -6.66847,-13.98724 -8.35708,-21.4832 -1.87225,-8.31097 -1.84246,-25.49124 -1.84246,-25.49124 z"
       id="path5811"
       inkscape:connector-curvature="0"
       sodipodi:nodetypes="cssssssscsssssssscc"
       inkscape:transform-center-x="-98.064258"
       inkscape:transform-center-y="257.08285" />
    <path
       inkscape:transform-center-y="180.21989"
       inkscape:transform-center-x="-195.75036"
       sodipodi:nodetypes="cssssssscsssssssscc"
       inkscape:connector-curvature="0"
       id="path5813"
       d="m 564.95774,477.5241 c 0,0 1.88138,4.64296 2.73391,6.9976 3.11266,8.59663 4.60629,17.83506 8.68872,26.01575 5.89756,11.81799 13.29771,23.1367 22.4846,32.62602 9.71826,10.03823 22.82333,16.15144 33.72484,24.89025 11.1913,8.97109 23.07239,17.39878 32.47299,28.23183 6.19042,7.13371 10.80811,15.53214 15.39299,23.78989 2.65952,4.79004 5.1102,9.72964 6.99197,14.87517 1.89962,5.19448 4.2945,16.02742 4.2945,16.02742 0,0 -8.21515,-11.21839 -12.95238,-16.28426 -4.37507,-4.6786 -9.10839,-9.06164 -14.20431,-12.94265 -7.9401,-6.04705 -16.32314,-11.66263 -25.32381,-15.97549 -7.36659,-3.52987 -15.3019,-5.79 -23.17654,-7.9618 -10.90918,-3.0087 -22.41576,-3.62961 -33.22246,-6.98785 -11.67379,-3.62769 -23.5208,-7.57654 -33.84555,-14.12154 -7.09415,-4.49709 -12.59723,-11.11874 -18.69812,-16.89197 -5.58108,-5.28135 -11.78107,-10.06567 -16.37258,-16.22675 -5.09076,-6.83093 -12.05139,-22.53801 -12.05139,-22.53801 z"
       style="fill:#ffdd37;fill-opacity:1;fill-rule:evenodd;stroke:none;stroke-width:1px;stroke-linecap:butt;stroke-linejoin:miter;stroke-opacity:1" />
    <path
       style="fill:#ffdd37;fill-opacity:1;fill-rule:evenodd;stroke:none;stroke-width:1px;stroke-linecap:butt;stroke-linejoin:miter;stroke-opacity:1"
       d="m 588.81575,402.78138 c 0,0 3.60719,3.47633 5.34374,5.28065 6.34012,6.58738 11.46222,14.41959 18.5191,20.23255 10.19449,8.39751 21.5586,15.72776 33.8109,20.66004 12.96099,5.21761 27.41953,5.47199 40.93295,9.02125 13.87263,3.64358 28.1544,6.51019 41.14847,12.5831 8.55677,3.9991 16.19119,9.79326 23.73842,15.47225 4.37787,3.2942 8.6258,6.80997 12.43776,10.74526 3.84817,3.97275 10.44216,12.89504 10.44216,12.89504 0,0 -12.06785,-6.9071 -18.456,-9.6082 -5.89978,-2.49461 -12.00663,-4.5735 -18.24053,-6.04629 -9.7132,-2.29472 -19.65555,-4.01512 -29.63227,-4.29421 -8.16544,-0.22844 -16.33399,0.93441 -24.41118,2.15328 -11.18978,1.68858 -21.95411,5.8015 -33.19244,7.12907 -12.14005,1.4341 -24.56898,2.64526 -36.6632,0.86556 -8.30996,-1.22285 -16.03054,-5.03372 -23.95216,-7.82637 -7.24669,-2.55473 -14.85662,-4.40366 -21.55711,-8.16455 -7.42903,-4.16976 -20.17653,-15.68775 -20.17653,-15.68775 z"
       id="path5815"
       inkscape:connector-curvature="0"
       sodipodi:nodetypes="cssssssscsssssssscc"
       inkscape:transform-center-x="-260.98021"
       inkscape:transform-center-y="72.195275" />
    <path
       inkscape:transform-center-y="-18.080439"
       inkscape:transform-center-x="-281.08421"
       sodipodi:nodetypes="cssssssscsssssssscc"
       inkscape:connector-curvature="0"
       id="path5817"
       d="m 580.21053,324.79658 c 0,0 4.70928,1.70861 7.02958,2.65062 8.47132,3.43912 16.33624,8.51085 25.14736,10.95096 12.72871,3.52504 26.09182,5.59935 39.29099,5.12175 13.96265,-0.50518 27.27465,-6.15361 41.06338,-8.4076 14.15526,-2.31394 28.36826,-5.50408 42.70901,-5.24136 9.44358,0.17301 18.77466,2.36104 27.97926,4.47932 5.33925,1.22876 10.64992,2.71279 15.73295,4.75739 5.13134,2.06409 14.78427,7.53299 14.78427,7.53299 0,0 -13.8339,-1.40151 -20.7684,-1.27079 -6.40437,0.12072 -12.82882,0.70543 -19.1228,1.89553 -9.8068,1.85438 -19.58934,4.32664 -28.81704,8.12957 -7.55242,3.1125 -14.54179,7.49726 -21.42491,11.89604 -9.53556,6.09389 -17.69639,14.22948 -27.42315,20.01332 -10.50718,6.24791 -21.36895,12.40966 -33.14144,15.70299 -8.0889,2.26284 -16.69203,1.92168 -25.06466,2.59248 -7.65928,0.61363 -15.36333,2.01979 -23.01422,1.30938 -8.48275,-0.78761 -24.81296,-6.12494 -24.81296,-6.12494 z"
       style="fill:#ffdd37;fill-opacity:1;fill-rule:evenodd;stroke:none;stroke-width:1px;stroke-linecap:butt;stroke-linejoin:miter;stroke-opacity:1" />
    <path
       style="fill:#ffdd37;fill-opacity:1;fill-rule:evenodd;stroke:none;stroke-width:1px;stroke-linecap:butt;stroke-linejoin:miter;stroke-opacity:1"
       d="m 540.62999,257.05398 c 0,0 4.9971,-0.35454 7.49995,-0.43772 9.13775,-0.30381 18.38557,1.1305 27.42741,-0.22416 13.06202,-1.95694 26.11353,-5.49723 37.97731,-11.30213 12.55004,-6.14063 22.41373,-16.7152 34.09359,-24.38271 11.9903,-7.87135 23.67698,-16.56663 36.88476,-22.15954 8.69751,-3.68299 18.11183,-5.47942 27.38223,-7.28812 5.37743,-1.04914 10.83258,-1.85346 16.30777,-2.05308 5.52726,-0.20146 16.57005,0.86843 16.57005,0.86843 0,0 -13.20794,4.34641 -19.48976,7.28634 -5.80158,2.71518 -11.43278,5.86239 -16.69856,9.5096 -8.20471,5.68284 -16.13595,11.92028 -23.01908,19.14767 -5.63351,5.91526 -10.23518,12.76377 -14.73408,19.58187 -6.23256,9.44551 -10.3788,20.19705 -16.91214,29.43708 -7.05753,9.98141 -14.47404,20.02832 -23.88923,27.82523 -6.4692,5.35726 -14.46731,8.54481 -21.84325,12.56307 -6.74751,3.67589 -13.21358,8.094 -20.49196,10.5569 -8.06973,2.73073 -25.15901,4.49693 -25.15901,4.49693 z"
       id="path5819"
       inkscape:connector-curvature="0"
       sodipodi:nodetypes="cssssssscsssssssscc"
       inkscape:transform-center-x="-241.6332"
       inkscape:transform-center-y="-124.20072" />
    <path
       inkscape:transform-center-y="-215.79085"
       inkscape:transform-center-x="-155.47522"
       sodipodi:nodetypes="cssssssscsssssssscc"
       inkscape:connector-curvature="0"
       id="path5821"
       d="m 476.91797,211.26689 c 0,0 4.42088,-2.35639 6.67351,-3.45038 8.22418,-3.9942 17.25587,-6.44532 24.96501,-11.36051 11.13679,-7.10056 21.61998,-15.6433 30.09701,-25.77178 8.96742,-10.7143 13.67728,-24.38658 21.22871,-36.14182 7.75211,-12.06773 14.89174,-24.76467 24.6828,-35.246133 6.44757,-6.902175 14.3173,-12.372444 22.05057,-17.795385 4.4858,-3.145635 9.14218,-6.099227 14.06283,-8.50855 4.96746,-2.432182 15.49071,-5.946296 15.49071,-5.946296 0,0 -10.29821,9.342797 -14.84116,14.583603 -4.19564,4.840155 -8.05991,10.00569 -11.38699,15.479368 -5.18396,8.528693 -9.89251,17.452803 -13.24092,26.854973 -2.74051,7.69521 -4.15881,15.8233 -5.49558,23.88182 -1.8519,11.16391 -1.26663,22.67236 -3.47687,33.77089 -2.38757,11.98903 -5.07645,24.18391 -10.50636,35.13624 -3.73091,7.52536 -9.74106,13.69046 -14.84494,20.36139 -4.66904,6.10255 -8.77908,12.76868 -14.42646,17.97904 -6.26138,5.7769 -21.15483,14.34124 -21.15483,14.34124 z"
       style="fill:#ffdd37;fill-opacity:1;fill-rule:evenodd;stroke:none;stroke-width:1px;stroke-linecap:butt;stroke-linejoin:miter;stroke-opacity:1" />
    <path
       inkscape:connector-curvature="0"
       id="path5823"
       d="m 403.85556,197.33901 c -4.46811,3.46658 -1.41867,11.79512 -4.98248,15.26888 -23.67416,0.95686 -47.50009,-1.05047 -71.2494,-0.80822 -2.43997,3.55461 1.67832,8.83603 1.74272,13.00725 2.19866,5.20761 -6.23832,5.30592 -8.98224,7.73317 -18.91904,8.72404 -38.81577,15.77573 -57.49363,24.6644 2.02073,4.75854 7.91896,8.63969 9.27613,13.24374 -14.74692,18.82876 -32.67206,34.94543 -48.01316,53.25739 1.55734,4.39403 8.29944,4.72233 11.71226,7.69413 3.16552,2.28191 -1.12382,7.28217 -1.15605,10.4443 -6.02235,19.95596 -14.51515,39.53044 -19.87826,59.52619 4.59412,2.98455 11.9323,-0.46386 16.04725,2.78055 2.89109,23.85094 4.64223,48.26427 6.53921,72.1196 5.59794,0.0638 11.59517,-5.95689 17.0667,-4.08241 12.00141,20.31654 22.49695,41.61669 34.38597,61.98016 5.44599,-1.3594 8.79559,-7.88773 13.27818,-11.11987 19.04075,13.84827 36.71015,29.82622 56.79104,42.12602 4.62895,0.79391 4.14475,-7.05815 6.52161,-9.67827 2.19893,-8.36711 12.796,0.28201 18.9795,-0.0116 17.96089,3.98114 35.98224,9.40009 53.89934,12.51634 0.91653,-5.56397 -0.79419,-11.48119 -0.89316,-17.13789 23.62274,-4.68485 47.38316,-8.69198 70.96468,-13.57437 1.6736,-3.8044 -3.0649,-8.14934 -3.89185,-12.07963 -2.45428,-3.37247 -0.79171,-5.83951 2.82297,-7.23383 18.15256,-12.74001 36.76578,-24.95123 54.72807,-37.88398 -1.89646,-5.31535 -8.77573,-7.87466 -12.40797,-12.18067 12.20449,-20.43915 25.43265,-40.46797 36.90936,-61.22934 -3.3059,-4.94677 -11.68038,-3.26342 -15.24132,-7.61836 2.62128,-23.35528 6.51382,-46.6328 8.25208,-70.05315 -4.83988,-2.47495 -11.51147,1.53488 -16.59601,0.0666 -7.75476,-22.88643 -13.40804,-46.67714 -21.42694,-69.31152 -5.39554,1.58218 -9.79715,7.76066 -15.45945,8.11432 -15.35168,-17.6855 -30.28089,-35.83819 -45.76301,-53.34693 -5.48965,1.65771 -7.39255,9.07224 -11.11298,12.96592 -21.71189,-9.92233 -42.90828,-21.18306 -64.99261,-30.18187 l -0.37655,0.023 z"
       style="fill:#ffdd37;fill-opacity:1;stroke:none;stroke-width:2;stroke-miterlimit:4;stroke-dasharray:none;stroke-opacity:1" />
  </g>
</svg>
